<svg xmlns="http://www.w3.org/2000/svg" viewBox="0 0 66 66"><path fill="#ed930b" d="M49.7 1H16.3c-2.1 0-3.9 1.7-3.9 3.9v56.2c0 2.1 1.7 3.9 3.9 3.9h33.5c2.1 0 3.9-1.7 3.9-3.9V4.9c-.1-2.2-1.8-3.9-4-3.9zM32.3 5.7c.4-.4 1-.4 1.4 0 .4.3.4 1 0 1.4-.4.4-1 .4-1.4 0-.4-.4-.4-1 0-1.4zm-4.4 0c.4-.4 1-.4 1.4 0 .4.4.4 1 0 1.4-.4.4-1 .4-1.4 0-.3-.4-.4-1 0-1.4zM36 59.9h-6c-.5 0-1-.4-1-1 0-.5.4-1 1-1h6c.5 0 1 .4 1 1s-.5 1-1 1zm15.7-7H14.3V11.7h37.3v41.2z" class="color000000 svgShape"/><path fill="#ed930b" d="M29.5 36.7c.5.2 1.1-.1 1.2-.6l6.4-18.5c.2-.5-.1-1.1-.6-1.2-.5-.2-1.1.1-1.2.6l-6.4 18.5c-.2.4.1 1 .6 1.2zm8.4-14.4 7.4 4.2-7.4 4.2c-.5.3-.6.9-.4 1.3.3.5.9.6 1.3.4l8.9-5c.3-.2.5-.5.5-.8 0-.4-.2-.7-.5-.8l-8.9-5c-.5-.3-1.1-.1-1.3.4-.2.3-.1.8.4 1.1zm-19.7 5 8.9 5c.5.3 1.1.1 1.3-.4.3-.5.1-1.1-.4-1.3l-7.4-4.2 7.4-4.2c.5-.3.6-.9.4-1.3-.3-.5-.9-.6-1.3-.4l-8.9 5c-.3.2-.5.5-.5.8 0 .5.2.9.5 1zm.9 14h12.2c.5 0 1-.4 1-1s-.4-1-1-1H19.1c-.5 0-1 .4-1 1s.5 1 1 1zm21.1 3.2H19.1c-.5 0-1 .4-1 1 0 .5.4 1 1 1h21.1c.5 0 1-.4 1-1 0-.5-.4-1-1-1z" class="color000000 svgShape"/></svg>