<svg xmlns="http://www.w3.org/2000/svg" viewBox="0 0 64 64"><path fill="#ed930b" d="M15 16.5H12a2.00229 2.00229 0 00-2 2v3a1 1 0 002 0v-3h3A1.00019 1.00019 0 0015 16.5zM40 18.5h3v3a1.00019 1.00019 0 002-.00006V18.5a2.00229 2.00229 0 00-2-2H40A1.00019 1.00019 0 0040 18.5zM15 45.5H12v-3a1.00019 1.00019 0 00-2 .00006V45.5a2.00229 2.00229 0 002 2h3A1.00019 1.00019 0 0015 45.5zM40 47.5h3a2.00229 2.00229 0 002-2v-3a1 1 0 00-2 0v3H40A1.00019 1.00019 0 0040 47.5z" class="color000000 svgShape"/><path fill="#ed930b" d="M59.41406,14.67188A3.80565,3.80565,0,0,0,58,13.79156V12.5a4.00427,4.00427,0,0,0-4-4H6a4.00427,4.00427,0,0,0-4,4v39a4.00427,4.00427,0,0,0,4,4H54a4.00427,4.00427,0,0,0,4-4V24.5708l2.82812-2.82812a4.01786,4.01786,0,0,0,0-5.65674ZM56,51.5a2.00229,2.00229,0,0,1-2,2v-15a1,1,0,0,0-2,0v15H6a2.00229,2.00229,0,0,1-2-2v-39a2.00229,2.00229,0,0,1,2-2H54a2.00229,2.00229,0,0,1,2,2v1.0918a3.90461,3.90461,0,0,0-2.24219,1.08008L49,19.42944V15.5a3.00328,3.00328,0,0,0-3-3H9a3.00328,3.00328,0,0,0-3,3v33a3.00328,3.00328,0,0,0,3,3H46a3.00328,3.00328,0,0,0,3-3V33.5708l7-7ZM30.58984,44.90967a1.9912,1.9912,0,0,0,2.04688.48388l6.58789-2.19628a.99678.99678,0,0,0,.39062-.2417L47,35.5708V48.5a1.001,1.001,0,0,1-1,1H9a1.001,1.001,0,0,1-1-1v-33a1.001,1.001,0,0,1,1-1H46a1.001,1.001,0,0,1,1,1v5.92938L32.544,35.88477a1.00088,1.00088,0,0,0-.24122.39111l-2.19531,6.5874A1.98828,1.98828,0,0,0,30.58984,44.90967ZM59.41406,20.32861l-21.0459,21.0459-6.36425,2.1211L34.125,37.13184l21.04688-21.0459a2.04706,2.04706,0,0,1,2.82812,0L59.41406,17.5A2.00933,2.00933,0,0,1,59.41406,20.32861Z" class="color000000 svgShape"/></svg>